<?xml version="1.0" standalone="no"?>
<!DOCTYPE svg PUBLIC "-//W3C//DTD SVG 1.1//EN" "http://www.w3.org/Graphics/SVG/1.1/DTD/svg11.dtd"><svg t="1620890059609"
  class="icon" viewBox="0 0 2468 1024" version="1.1" xmlns="http://www.w3.org/2000/svg" p-id="8101"
  xmlns:xlink="http://www.w3.org/1999/xlink" width="482.03125" height="200">
  <defs>
    <style type="text/css"></style>
  </defs>
  <path
    d="M1234.488889 909.084444c-588.231111 0-894.293333-47.786667-896.568889-48.924444-180.906667-20.48-319.715556-185.457778-308.337778-367.502222l1.137778-34.133334c10.24-184.32 164.977778-356.124444 343.608889-384.568888 1.137778 0 274.204444-68.266667 846.506667-68.266667h13.653333c581.404444 1.137778 856.746667 71.68 859.022222 71.68 177.493333 31.857778 332.231111 204.8 343.608889 385.706667l2.275556 29.582222c11.377778 183.182222-126.293333 348.16-307.2 367.502222-2.275556 1.137778-309.475556 48.924444-897.706667 48.924444z m-1181.013333-449.422222l-1.137778 34.133334c-10.24 170.666667 119.466667 324.266667 288.995555 343.608888 3.413333 0 308.337778 48.924444 893.155556 48.924445 585.955556 0 892.017778-47.786667 895.431111-48.924445 169.528889-18.204444 298.097778-171.804444 286.72-343.608888l-2.275556-29.582223c-10.24-171.804444-157.013333-334.506667-326.542222-365.226666-3.413333-1.137778-276.48-70.542222-854.471111-71.68h-13.653333c-568.888889 0-839.68 67.128889-841.955556 68.266666-169.528889 27.306667-315.164444 191.146667-324.266666 364.088889z"
    fill="#515151" p-id="8103"></path>
  <path
    d="M1234.488889 1018.311111c-588.231111 0-844.231111-47.786667-846.506667-48.924444-179.768889-20.48-331.093333-232.106667-344.746666-365.226667l22.755555-2.275556c12.515556 122.88 158.151111 326.542222 325.404445 344.746667 3.413333 1.137778 257.137778 48.924444 843.093333 48.924445 584.817778 0 820.337778-47.786667 822.613333-47.786667 168.391111-18.204444 318.577778-199.111111 348.16-350.435556l22.755556 4.551111c-15.928889 79.644444-62.577778 166.115556-127.431111 235.52-71.68 77.368889-157.013333 124.017778-240.071111 133.12-1.137778 0-237.795556 47.786667-826.026667 47.786667z"
    fill="#515151" p-id="8104"></path>
  <path
    d="M267.8784 820.178489l71.998578 120.001422-9.762134 5.859556-71.998577-120.0128zM383.260444 848.702578l64.284445 113.9712-9.921422 5.597866-64.273067-113.982577zM493.2608 855.529244l67.1744 117.5552-9.875911 5.643378-67.1744-117.5552zM615.799467 869.148444l48.628622 111.616-10.433422 4.528356-48.617245-111.616zM738.110578 876.316444l48.514844 109.169778-10.399289 4.619378-48.514844-109.169778zM850.852978 882.688l36.408889 111.388444-10.820267 3.538489-36.408889-111.388444zM952.024178 886.442667l36.329244 109.021866-10.786133 3.595378-36.340622-109.010489zM1105.1008 889.161956l22.072889 108.1344-11.150222 2.275555-22.072889-108.1344zM1259.201422 892.768711l11.286756 1.399467-13.300622 107.269689-11.286756-1.399467zM1362.568533 891.551289l11.298134 1.308444-12.049067 103.970134-11.298133-1.308445zM1462.545067 887.387022l11.275377 1.479111-14.358755 110.569245-11.286756-1.467734zM1576.0384 888.411022l11.229867 1.820445-16.600178 102.206577-11.229867-1.820444zM1670.735644 879.138133l11.355023 0.796445-7.600356 107.815822-11.343644-0.796444zM1776.514844 876.9536l11.320889 1.069511-9.910044 105.358222-11.332267-1.080889zM1886.9248 868.784356l11.355022 0.841955-7.68 103.241956-11.343644-0.841956zM1985.251556 858.862933l11.343644 0.955734-8.795022 104.300089-11.343645-0.955734zM2079.175111 848.2816l11.320889 1.103644-9.887289 100.784356-11.320889-1.115022zM2163.484444 835.902578l11.320889 1.069511-7.7824 82.693689-11.332266-1.069511zM2235.733333 811.235556h11.377778v54.613333h-11.377778z"
    fill="#515151" p-id="8105"></path>
</svg>
